<svg width="45" height="45" viewBox="0 0 45 45" fill="none" xmlns="http://www.w3.org/2000/svg">
<path d="M44.5 22.5C44.5 34.6503 34.6503 44.5 22.5 44.5C10.3497 44.5 0.5 34.6503 0.5 22.5C0.5 10.3497 10.3497 0.5 22.5 0.5C34.6503 0.5 44.5 10.3497 44.5 22.5Z" stroke="white"/>
<path d="M12.5 18C12.5 18 12.5 14 15 14C17.5 14 17.5 18 17.5 18C17.5 18 17.5 22 15 22C12.5 22 12.5 18 12.5 18Z" stroke="white" fill="white"/>
<path d="M27 18C27 18 27 14 29.5 14C32 14 32 18 32 18C32 18 32 22 29.5 22C27 22 27 18 27 18Z" stroke="white" fill="white"/>
<path fill="white" d="M11 30.5C10.3064 30.4753 10.5006 28.5015 11 28.5C11.4994 28.4985 32.5005 28.5164 33 28.5C33.4995 28.4836 33.3107 30.4715 33 30.5C32.6894 30.5285 11.6936 30.5247 11 30.5Z" stroke="white"/>
</svg>
