<svg width="45" height="45" viewBox="0 0 45 45" fill="none" xmlns="http://www.w3.org/2000/svg">
<path d="M44.5 22.5C44.5 34.6503 34.6503 44.5 22.5 44.5C10.3497 44.5 0.5 34.6503 0.5 22.5C0.5 10.3497 10.3497 0.5 22.5 0.5C34.6503 0.5 44.5 10.3497 44.5 22.5Z" stroke="white"/>
<path d="M10 28.5C10 28.5 11 33.5 22 33.5C33 33.5 34 28.5 34 28.5" stroke="white" stroke-width="2"/>
<path fill='white' d="M32 19C32 16 32 14 29.5 14C27 14 27 16 27 19C27 22 28 18.5 29.5 18.5C31 18.5 32 22 32 19Z" stroke="white"/>
<path fill='white' d="M18 19C18 16 18 14 15.5 14C13 14 13 16 13 19C13 22 14 18.5 15.5 18.5C17 18.5 18 22 18 19Z" stroke="white"/>
</svg>
