<?xml version="1.0" standalone="no"?>
<!DOCTYPE svg PUBLIC "-//W3C//DTD SVG 20010904//EN"
 "http://www.w3.org/TR/2001/REC-SVG-20010904/DTD/svg10.dtd">
<svg version="1.0" xmlns="http://www.w3.org/2000/svg"
 width="466.000000pt" height="677.000000pt" viewBox="0 0 466.000000 677.000000"
 preserveAspectRatio="xMidYMid meet">

<g transform="translate(0.000000,677.000000) scale(0.100000,-0.100000)"
fill="#000000" stroke="none">
<path d="M3210 6578 c-115 -65 -356 -337 -381 -430 -21 -80 6 -120 109 -159
34 -13 62 -29 62 -36 0 -12 -11 -9 -180 56 -64 25 -110 27 -149 7 -40 -21
-203 -172 -283 -263 -210 -237 -279 -388 -210 -463 25 -28 44 -34 258 -82
l231 -51 58 27 c63 29 98 31 209 15 l74 -11 6 -42 c3 -22 8 -147 12 -276 8
-274 1 -313 -66 -394 -22 -27 -43 -60 -47 -75 -3 -14 -7 -29 -10 -33 -2 -4
-56 18 -121 48 -186 88 -427 189 -556 233 -117 40 -234 62 -558 101 -176 22
-263 4 -334 -67 -59 -59 -78 -108 -79 -199 l0 -81 57 -85 c31 -47 67 -107 81
-134 28 -56 73 -191 66 -198 -3 -3 -34 7 -69 21 -63 26 -75 27 -344 35 -198 6
-289 5 -313 -3 -26 -8 -46 -29 -88 -93 -39 -59 -122 -151 -287 -318 -128 -129
-254 -251 -280 -271 -35 -28 -50 -48 -59 -80 -27 -99 15 -320 79 -412 15 -22
44 -48 65 -58 36 -18 41 -18 239 8 112 14 213 28 225 30 19 5 32 -10 92 -101
61 -95 68 -110 60 -136 -9 -32 -5 -63 18 -146 9 -32 12 -68 8 -91 -8 -50 13
-94 54 -111 17 -7 47 -27 66 -46 20 -19 47 -37 61 -40 38 -10 73 19 80 66 4
22 11 43 16 46 5 3 31 -15 58 -40 27 -25 56 -46 64 -46 7 0 37 16 66 35 61 41
66 42 75 14 7 -22 42 -39 63 -31 18 6 51 75 48 98 -3 22 -35 32 -47 13 -6 -10
-10 -10 -23 0 -21 18 -20 33 5 65 25 32 44 22 57 -28 5 -17 14 -31 21 -31 7 0
36 23 64 50 29 28 135 120 236 205 101 85 196 165 210 177 21 18 39 22 94 23
56 0 67 -3 67 -17 0 -9 -54 -128 -119 -264 -196 -406 -247 -552 -238 -679 8
-118 51 -173 212 -267 l100 -59 17 -69 c9 -39 17 -91 17 -117 1 -40 -2 -48
-17 -48 -10 0 -32 -13 -49 -29 -18 -16 -50 -37 -72 -47 -38 -18 -64 -55 -64
-90 0 -7 -4 -11 -8 -8 -4 2 -9 -1 -11 -7 -2 -7 -57 -11 -154 -12 -134 -2 -152
0 -169 16 -31 32 -15 136 36 227 l19 35 -23 -28 c-41 -49 -197 -389 -207 -452
-17 -102 21 -195 107 -263 56 -43 76 -52 142 -58 57 -6 151 9 151 25 0 3 -35
6 -78 6 -66 0 -86 5 -142 31 -68 33 -110 67 -148 121 -19 26 -23 43 -20 88 2
30 7 55 12 55 4 0 5 11 2 24 -4 16 0 28 12 37 14 11 15 11 5 -1 -21 -23 -15
-35 7 -15 11 10 20 13 20 8 0 -6 -7 -16 -15 -23 -18 -15 -20 -35 -3 -24 7 5 8
3 3 -5 -7 -12 25 -51 43 -51 5 0 33 -18 62 -40 64 -48 116 -54 150 -18 12 13
17 24 11 26 -5 2 -6 15 -2 29 9 34 26 39 209 53 130 10 265 30 308 47 21 8 19
-2 -37 -175 -59 -181 -71 -268 -45 -317 19 -34 140 -113 213 -139 21 -7 72
-30 112 -50 99 -50 226 -77 366 -77 96 0 118 3 175 26 72 30 100 50 100 74 0
11 -3 12 -8 4 -4 -7 -39 -27 -77 -44 -102 -46 -151 -44 -251 11 -42 23 -82 46
-88 51 -11 9 -34 26 -122 86 -44 30 -96 96 -95 122 0 21 8 89 13 121 3 14 13
40 22 59 12 21 14 36 8 40 -12 7 6 91 21 102 5 4 9 22 10 42 0 20 4 34 7 32 3
-2 7 46 8 107 1 61 4 113 7 117 11 19 -39 145 -73 184 -20 23 -29 36 -19 28 9
-8 20 -11 23 -8 3 3 -7 12 -23 20 -15 9 -35 26 -43 38 -19 29 -91 99 -101 99
-5 0 -25 17 -47 38 -21 20 -50 43 -65 51 -15 8 -27 18 -27 22 0 5 -12 15 -27
23 -16 8 -49 32 -74 55 -26 22 -49 37 -53 34 -3 -3 -6 -1 -6 5 0 6 -16 28 -35
49 -19 21 -33 43 -31 49 3 6 0 16 -5 21 -11 11 -19 181 -9 185 5 2 10 37 13
78 2 41 9 88 16 103 6 16 11 31 11 33 0 3 13 32 30 65 16 33 30 63 31 67 1 4
4 15 7 25 2 9 8 17 12 17 4 0 14 15 21 33 7 17 21 41 31 51 10 11 18 25 18 30
1 12 35 56 44 56 3 0 20 14 38 30 17 17 37 30 44 30 8 0 14 3 14 8 0 9 77 41
105 43 60 6 81 -1 100 -33 21 -36 21 -67 -1 -84 -8 -6 -14 -16 -14 -21 0 -5
-12 -21 -27 -35 -74 -68 -178 -187 -194 -222 -20 -45 -24 -37 79 -143 66 -67
73 -78 70 -109 -2 -30 5 -42 66 -103 63 -63 96 -82 82 -45 -3 9 0 11 12 7 15
-6 16 -5 2 12 -14 17 -13 18 2 12 10 -3 17 -3 16 1 -4 16 14 52 24 46 6 -4 8
2 3 17 -4 16 -3 20 3 11 7 -11 14 -8 30 12 25 33 32 33 33 -1 0 -16 11 17 24
72 46 200 103 349 227 598 111 223 168 353 168 381 0 6 -5 4 -10 -4 -7 -11 -9
3 -8 46 3 69 -5 67 96 30 111 -40 257 -29 378 29 114 55 263 206 289 294 l7
24 -34 -26 c-21 -16 -43 -25 -56 -22 -12 2 -22 0 -22 -4 0 -4 -30 -13 -67 -19
-38 -6 -88 -16 -113 -21 -93 -21 -180 -5 -305 54 -32 15 -105 85 -89 85 5 0 1
5 -9 11 -9 6 -15 14 -12 20 4 5 1 9 -5 9 -6 0 -8 5 -5 10 3 5 3 10 -2 10 -4 0
-20 24 -35 53 -32 62 -36 155 -8 197 9 14 21 37 28 53 6 15 16 27 22 27 5 0
10 5 10 12 0 7 10 22 23 33 13 11 42 46 65 77 23 31 46 59 52 63 6 3 7 11 4
17 -4 7 -2 8 4 4 7 -4 20 -2 29 3 17 10 17 10 -1 11 -14 0 -17 5 -12 23 3 12
6 34 6 50 0 25 3 27 45 27 26 0 63 9 84 20 96 48 289 229 352 329 46 71 55
111 35 153 -19 40 -38 51 -118 67 -51 11 -56 15 -62 43 -3 17 -4 33 -1 36 3 3
77 -9 165 -28 185 -38 219 -37 293 13 70 46 240 201 357 324 119 125 170 208
170 276 0 71 -21 103 -88 133 -181 82 -287 124 -310 124 -15 0 -51 -11 -80
-25 -69 -32 -124 -32 -361 0 -101 14 -185 25 -187 25 -2 0 -4 76 -4 168 0 196
11 246 69 319 66 84 73 110 46 163 -11 22 -60 53 -212 134 -124 66 -209 106
-228 106 -16 0 -55 -14 -85 -32z m-1612 -3095 c24 -93 44 -189 45 -215 1 -27
6 -48 11 -48 5 0 33 11 61 25 78 36 215 73 355 96 178 28 217 38 284 72 36 19
74 30 101 31 38 1 42 3 34 18 -17 31 -48 40 -115 33 -56 -6 -64 -4 -73 14 -14
26 -13 72 2 92 10 13 49 17 245 23 159 5 232 4 232 -3 0 -28 -71 -87 -152
-127 -85 -41 -87 -42 -60 -52 15 -5 57 -35 92 -66 36 -32 85 -69 110 -83 80
-46 114 -72 183 -140 49 -49 67 -74 67 -93 0 -26 -4 -30 -70 -58 -52 -23 -107
-25 -535 -27 -242 -1 -449 -4 -460 -7 -98 -25 -233 -33 -212 -12 7 7 -26 42
-35 37 -13 -7 -117 10 -112 18 3 5 -3 9 -13 9 -11 0 -25 6 -32 13 -11 10 -12
9 -6 -3 5 -10 5 -12 -3 -5 -19 19 -17 50 8 85 13 19 29 38 35 42 5 5 -4 5 -21
2 -29 -6 -34 -1 -178 191 -148 198 -175 239 -162 252 4 4 70 10 146 13 114 4
142 8 157 23 9 9 20 17 23 17 4 0 25 -75 48 -167z m-480 -711 c9 -6 5 -17 -16
-40 -16 -18 -33 -32 -38 -32 -5 1 -26 16 -47 35 -32 28 -35 34 -20 38 31 8
107 7 121 -1z m210 -425 c-2 -9 -10 -2 -21 21 l-19 37 22 -21 c12 -12 20 -28
18 -37z m989 -1146 c-3 -44 -10 -87 -16 -98 -6 -10 -11 -13 -11 -5 0 7 -5 10
-12 6 -7 -4 -8 -3 -4 4 4 7 3 12 -3 12 -5 0 -11 -6 -14 -12 -2 -7 -2 -3 -1 9
2 12 0 23 -4 25 -5 2 -7 20 -4 40 2 21 8 35 13 32 9 -5 13 11 9 31 -4 23 16
-10 27 -43 12 -36 12 -36 11 -7 -2 51 2 85 8 85 4 0 4 -36 1 -79z m-821 -219
c0 -10 -6 -19 -13 -19 -8 0 -9 6 -2 19 5 10 11 18 12 18 2 0 3 -8 3 -18z"/>
<path d="M2291 1124 c0 -11 3 -14 6 -6 3 7 2 16 -1 19 -3 4 -6 -2 -5 -13z"/>
<path d="M2741 914 c0 -11 3 -14 6 -6 3 7 2 16 -1 19 -3 4 -6 -2 -5 -13z"/>
<path d="M2721 814 c0 -11 3 -14 6 -6 3 7 2 16 -1 19 -3 4 -6 -2 -5 -13z"/>
</g>
</svg>
