<svg width="310" height="248" viewBox="0 0 310 248" fill="none" xmlns="http://www.w3.org/2000/svg">
<path d="M35.3979 110.647L3.25882 85.3627C2.83225 85.0271 2.75126 84.4125 3.07632 83.9779L58.3703 10.0431C58.6893 9.61649 59.2868 9.51489 59.7289 9.81207L92.2256 31.6546M35.3979 110.647L92.2256 31.6546M35.3979 110.647L69.6801 147.495M92.2256 31.6546L123.947 37.5716M123.947 37.5716L100.101 113.214C100.055 113.36 100.044 113.518 100.068 113.669C101.556 122.946 106.772 123.405 112.282 127.808C112.448 127.941 112.659 128.022 112.871 128.034C120.703 128.466 120.353 128.559 129.087 124.099C129.291 123.995 129.459 123.821 129.552 123.612L147.671 82.9945C147.859 82.5721 148.313 82.334 148.767 82.4189L174.971 87.3066C175.11 87.3325 175.242 87.3875 175.358 87.4679L259.74 145.984M123.947 37.5716L169.561 28.0184C169.618 28.0066 169.675 27.9997 169.732 27.9978L223.614 26.1511M259.74 145.984C266.381 154.97 267.13 159.878 262.612 168.214C262.545 168.337 262.45 168.448 262.339 168.532C255.024 174.089 250.769 174.405 243.106 171.569M259.74 145.984L279.066 96.7932M243.106 171.569C247.442 178.205 246.984 182.946 241.467 192.92C241.388 193.064 241.271 193.19 241.133 193.278C234.844 197.314 230.761 198.604 222.527 198.79M243.106 171.569L190.492 125.344M222.527 198.79C223.843 206.325 222.497 210.227 218.264 216.769C218.187 216.887 218.084 216.991 217.966 217.067C212.751 220.417 208.98 221.93 199.346 223.098M222.527 198.79L181.232 161.682M199.346 223.098C202.13 227.706 199.587 231.765 194.473 239.166C194.423 239.239 194.361 239.307 194.294 239.364C187.458 245.125 184.137 245.929 178.856 245.351C178.686 245.333 178.522 245.269 178.383 245.168L164.743 235.29M199.346 223.098L179.155 203.278M164.743 235.29L179.273 211.529C179.375 211.362 179.425 211.169 179.419 210.973L178.904 195.967C178.89 195.555 178.624 195.193 178.234 195.057L163.185 189.817M164.743 235.29L144.881 235.971C144.498 235.984 144.142 235.777 143.963 235.438L135.695 219.776M223.614 26.1511L254.039 3.1618C254.475 2.83251 255.094 2.91383 255.43 3.34446L307.11 69.5733C307.43 69.9829 307.383 70.5691 307.001 70.9221L279.066 96.7932M223.614 26.1511L279.066 96.7932M69.6801 147.495L61.3671 158.901C61.1855 159.151 61.129 159.47 61.214 159.766L64.345 170.686C64.435 171 64.6725 171.25 64.9813 171.356L81.7012 177.1M69.6801 147.495L87.6867 129.226C87.9159 128.993 88.2442 128.887 88.5662 128.942L107.123 132.09C107.468 132.149 107.757 132.383 107.885 132.708L113.155 146.005M81.7012 177.1L113.155 146.005M81.7012 177.1L90.079 193.882C90.216 194.156 90.4712 194.352 90.7716 194.414L106.923 197.749M113.155 146.005L132.612 148.245C132.998 148.29 133.324 148.554 133.447 148.924L138.825 165.137M138.825 165.137L106.923 197.749M138.825 165.137L158.386 169.802C158.762 169.891 159.052 170.19 159.132 170.568L163.185 189.817M106.923 197.749L115.385 217.416C115.53 217.753 115.848 217.983 116.214 218.016L135.695 219.776M163.185 189.817L135.695 219.776" stroke="black" stroke-width="4"/>
</svg>
