<svg width="312" height="245" viewBox="0 0 312 245" fill="none" xmlns="http://www.w3.org/2000/svg">
<path d="M35.5 103.5L3.27054 77.1304C2.84443 76.7818 2.78027 76.1543 3.12701 75.7267L61.9143 3.22231C62.2444 2.81518 62.8329 2.73201 63.2629 3.03171L95.5 25.5M35.5 103.5L95.5 25.5M35.5 103.5L63.1913 146.5M95.5 25.5L126.5 33.5M126.5 33.5C126.5 33.5 95.5 86.5 95.5 98.5C95.5 110.5 102 114.5 105.5 115.5C108.971 116.492 117.795 116.544 126.288 110.648C126.427 110.552 126.539 110.421 126.612 110.269L145.226 72.062C145.394 71.7182 145.739 71.4998 146.122 71.5006C154.269 71.5162 169.615 71.8816 179.372 76.4399C179.458 76.4799 179.536 76.5318 179.607 76.5945L258.5 146.5M126.5 33.5L172.415 25.5148C172.472 25.5049 172.529 25.5 172.586 25.5H225.5M258.5 146.5L279.5 98.5M258.5 146.5C264.693 155.482 265.669 160.518 258.5 169.5C253.032 174.877 249.087 175.471 239.5 169.5M279.5 98.5L308.825 72.1075C309.208 71.7629 309.266 71.184 308.96 70.7698L259.078 3.28212C258.756 2.84669 258.146 2.74651 257.702 3.0561L225.5 25.5M279.5 98.5L225.5 25.5M239.5 169.5C244.644 179.115 244.023 183.79 239.615 191.305C239.54 191.432 239.434 191.545 239.313 191.627C230.843 197.354 226.305 197.927 218.5 196.5M239.5 169.5L189.5 122M218.5 196.5C220.361 204.362 220.781 208.762 213.5 216.5C207.156 221.879 194 220 194 220M218.5 196.5L179.5 157.5M194 220C199 225.5 194.211 231.214 189.5 237C183.912 242.429 179.974 243.505 171.76 242.047C171.591 242.017 171.431 241.943 171.299 241.834L160 232.5M194 220L171.5 196.5M160 232.5L173.362 216.664C173.453 216.556 173.521 216.428 173.559 216.292C175.349 209.952 175.024 206.421 169.596 200.602C169.533 200.536 169.462 200.477 169.383 200.431C168.273 199.784 159.523 194.849 153.5 196.5M160 232.5L149.676 239.875C149.56 239.957 149.425 240.015 149.285 240.042C141.413 241.573 137.682 240.95 132.5 237C126.955 231.655 125.665 228.299 127.5 221.5M153.5 196.5C142.664 203.938 137.003 209.518 127.5 221.5M153.5 196.5C155.356 187.21 157.431 181.79 149.5 174.5C143.184 168.68 138.911 167.98 130.5 169.5M127.5 221.5C118.273 223.873 113.349 223.507 105.5 216.5C97.5346 207.93 97.2004 203.616 101.5 196.5M103.5 149L90.0809 164.904C90.0272 164.968 89.9657 165.025 89.8979 165.073L79.5 172.5M103.5 149C105.356 142.529 105.083 138.984 99.5959 133.102C99.5334 133.036 99.462 132.977 99.3829 132.931C98.282 132.289 89.6584 127.425 83.6404 128.963C83.5467 128.987 83.4573 129.027 83.3753 129.078C74.8292 134.411 69.4593 138.811 63.1913 146.5M103.5 149C112.814 144.868 118.062 145.061 127.364 151.899C127.453 151.965 127.534 152.049 127.596 152.14C132.65 159.525 131.781 163.105 130.5 169.5M79.5 172.5C72.6358 173.877 63.8773 170.117 62.6462 169.566C62.5456 169.521 62.4578 169.459 62.3786 169.383C56.9839 164.152 55.7012 160.809 57.4526 154.178C57.4832 154.062 57.536 153.95 57.606 153.852C59.5988 151.08 61.4305 148.66 63.1913 146.5M79.5 172.5C76.8743 182.728 78.219 186.574 83.5 191.5C89.858 198.439 93.9347 198.527 101.5 196.5M101.5 196.5L130.5 169.5" stroke="black" stroke-width="4"/>
</svg>
