<?xml version="1.0" encoding="utf-8"?>
<!-- Generator: Adobe Illustrator 26.4.0, SVG Export Plug-In . SVG Version: 6.00 Build 0)  -->
<svg version="1.1" id="Calque_1" xmlns="http://www.w3.org/2000/svg" xmlns:xlink="http://www.w3.org/1999/xlink" x="0px" y="0px"
	 viewBox="0 0 1920 3840" style="enable-background:new 0 0 1920 3840;" xml:space="preserve">
<style type="text/css">
	.st0{clip-path:url(#SVGID_00000150823126539025697460000006493356182423135880_);}
	.st1{fill:none;stroke:#004537;stroke-width:0.25;}
	.st2{clip-path:url(#SVGID_00000130624829438292760760000000998231842745109648_);}
</style>
<g>
	<defs>
		<rect id="SVGID_1_" width="1920" height="1920"/>
	</defs>
	<clipPath id="SVGID_00000052076653433349890820000000077512329899750837_">
		<use xlink:href="#SVGID_1_"  style="overflow:visible;"/>
	</clipPath>
	<g id="Groupe_32" style="clip-path:url(#SVGID_00000052076653433349890820000000077512329899750837_);">
		<line id="Ligne_48" class="st1" x1="1919.8" y1="0.2" x2="1919.8" y2="1919.8"/>
		<line id="Ligne_49" class="st1" x1="1857.9" y1="0.2" x2="1857.9" y2="1919.8"/>
		<line id="Ligne_50" class="st1" x1="1795.9" y1="0.2" x2="1795.9" y2="1919.8"/>
		<line id="Ligne_51" class="st1" x1="1734" y1="0.2" x2="1734" y2="1919.8"/>
		<line id="Ligne_52" class="st1" x1="1672.1" y1="0.2" x2="1672.1" y2="1919.8"/>
		<line id="Ligne_53" class="st1" x1="1610.2" y1="0.2" x2="1610.2" y2="1919.8"/>
		<line id="Ligne_54" class="st1" x1="1548.2" y1="0.2" x2="1548.2" y2="1919.8"/>
		<line id="Ligne_55" class="st1" x1="1486.3" y1="0.2" x2="1486.3" y2="1919.8"/>
		<line id="Ligne_56" class="st1" x1="1424.4" y1="0.2" x2="1424.4" y2="1919.8"/>
		<line id="Ligne_57" class="st1" x1="1362.5" y1="0.2" x2="1362.5" y2="1919.8"/>
		<line id="Ligne_58" class="st1" x1="1300.6" y1="0.2" x2="1300.6" y2="1919.8"/>
		<line id="Ligne_59" class="st1" x1="1238.6" y1="0.2" x2="1238.6" y2="1919.8"/>
		<line id="Ligne_60" class="st1" x1="1176.7" y1="0.2" x2="1176.7" y2="1919.8"/>
		<line id="Ligne_61" class="st1" x1="1114.8" y1="0.2" x2="1114.8" y2="1919.8"/>
		<line id="Ligne_62" class="st1" x1="1052.9" y1="0.2" x2="1052.9" y2="1919.8"/>
		<line id="Ligne_63" class="st1" x1="991" y1="0.2" x2="991" y2="1919.8"/>
		<line id="Ligne_64" class="st1" x1="929" y1="0.2" x2="929" y2="1919.8"/>
		<line id="Ligne_65" class="st1" x1="867.1" y1="0.2" x2="867.1" y2="1919.8"/>
		<line id="Ligne_66" class="st1" x1="805.2" y1="0.2" x2="805.2" y2="1919.8"/>
		<line id="Ligne_67" class="st1" x1="743.3" y1="0.2" x2="743.3" y2="1919.8"/>
		<line id="Ligne_68" class="st1" x1="681.4" y1="0.2" x2="681.4" y2="1919.8"/>
		<line id="Ligne_69" class="st1" x1="619.4" y1="0.2" x2="619.4" y2="1919.8"/>
		<line id="Ligne_70" class="st1" x1="557.5" y1="0.2" x2="557.5" y2="1919.8"/>
		<line id="Ligne_71" class="st1" x1="495.6" y1="0.2" x2="495.6" y2="1919.8"/>
		<line id="Ligne_72" class="st1" x1="433.7" y1="0.2" x2="433.7" y2="1919.8"/>
		<line id="Ligne_73" class="st1" x1="371.8" y1="0.2" x2="371.8" y2="1919.8"/>
		<line id="Ligne_74" class="st1" x1="309.8" y1="0.2" x2="309.8" y2="1919.8"/>
		<line id="Ligne_75" class="st1" x1="247.9" y1="0.2" x2="247.9" y2="1919.8"/>
		<line id="Ligne_76" class="st1" x1="186" y1="0.2" x2="186" y2="1919.8"/>
		<line id="Ligne_77" class="st1" x1="124.1" y1="0.2" x2="124.1" y2="1919.8"/>
		<line id="Ligne_78" class="st1" x1="62.1" y1="0.2" x2="62.1" y2="1919.8"/>
		<line id="Ligne_79" class="st1" x1="0.2" y1="0.2" x2="0.2" y2="1919.8"/>
		<line id="Ligne_80" class="st1" x1="0.2" y1="0.2" x2="1919.8" y2="0.2"/>
		<line id="Ligne_81" class="st1" x1="0.2" y1="62.1" x2="1919.8" y2="62.1"/>
		<line id="Ligne_82" class="st1" x1="0.2" y1="124.1" x2="1919.8" y2="124.1"/>
		<line id="Ligne_83" class="st1" x1="0.2" y1="186" x2="1919.8" y2="186"/>
		<line id="Ligne_84" class="st1" x1="0.2" y1="247.9" x2="1919.8" y2="247.9"/>
		<line id="Ligne_85" class="st1" x1="0.2" y1="309.8" x2="1919.8" y2="309.8"/>
		<line id="Ligne_86" class="st1" x1="0.2" y1="371.7" x2="1919.8" y2="371.8"/>
		<line id="Ligne_87" class="st1" x1="0.2" y1="433.7" x2="1919.8" y2="433.7"/>
		<line id="Ligne_88" class="st1" x1="0.2" y1="495.6" x2="1919.8" y2="495.6"/>
		<line id="Ligne_89" class="st1" x1="0.2" y1="557.5" x2="1919.8" y2="557.5"/>
		<line id="Ligne_90" class="st1" x1="0.2" y1="619.4" x2="1919.8" y2="619.4"/>
		<line id="Ligne_91" class="st1" x1="0.2" y1="681.4" x2="1919.8" y2="681.4"/>
		<line id="Ligne_92" class="st1" x1="0.2" y1="743.3" x2="1919.8" y2="743.3"/>
		<line id="Ligne_93" class="st1" x1="0.2" y1="805.2" x2="1919.8" y2="805.2"/>
		<line id="Ligne_94" class="st1" x1="0.2" y1="867.1" x2="1919.8" y2="867.1"/>
		<line id="Ligne_95" class="st1" x1="0.2" y1="929" x2="1919.8" y2="929"/>
		<line id="Ligne_96" class="st1" x1="0.2" y1="991" x2="1919.8" y2="991"/>
		<line id="Ligne_97" class="st1" x1="0.2" y1="1052.9" x2="1919.8" y2="1052.9"/>
		<line id="Ligne_98" class="st1" x1="0.2" y1="1114.8" x2="1919.8" y2="1114.8"/>
		<line id="Ligne_99" class="st1" x1="0.2" y1="1176.7" x2="1919.8" y2="1176.7"/>
		<line id="Ligne_100" class="st1" x1="0.2" y1="1238.6" x2="1919.8" y2="1238.6"/>
		<line id="Ligne_101" class="st1" x1="0.2" y1="1300.6" x2="1919.8" y2="1300.6"/>
		<line id="Ligne_102" class="st1" x1="0.2" y1="1362.5" x2="1919.8" y2="1362.5"/>
		<line id="Ligne_103" class="st1" x1="0.2" y1="1424.4" x2="1919.8" y2="1424.4"/>
		<line id="Ligne_104" class="st1" x1="0.2" y1="1486.3" x2="1919.8" y2="1486.3"/>
		<line id="Ligne_105" class="st1" x1="0.2" y1="1548.2" x2="1919.8" y2="1548.3"/>
		<line id="Ligne_106" class="st1" x1="0.2" y1="1610.2" x2="1919.8" y2="1610.2"/>
		<line id="Ligne_107" class="st1" x1="0.2" y1="1672.1" x2="1919.8" y2="1672.1"/>
		<line id="Ligne_108" class="st1" x1="0.2" y1="1734" x2="1919.8" y2="1734"/>
		<line id="Ligne_109" class="st1" x1="0.2" y1="1795.9" x2="1919.8" y2="1795.9"/>
		<line id="Ligne_110" class="st1" x1="0.2" y1="1857.9" x2="1919.8" y2="1857.9"/>
		<line id="Ligne_111" class="st1" x1="0.2" y1="1919.8" x2="1919.8" y2="1919.8"/>
	</g>
</g>
<g>
	<defs>
		<rect id="SVGID_00000139973543293687286650000002922031150612509091_" y="1920" width="1920" height="1920"/>
	</defs>
	<clipPath id="SVGID_00000027563841769671213700000008747742911852524478_">
		<use xlink:href="#SVGID_00000139973543293687286650000002922031150612509091_"  style="overflow:visible;"/>
	</clipPath>
	
		<g id="Groupe_32_00000113322622304079126480000012278424086236319136_" style="clip-path:url(#SVGID_00000027563841769671213700000008747742911852524478_);">
		
			<line id="Ligne_48_00000140000866691693325320000008245756891197353619_" class="st1" x1="1919.8" y1="1920.2" x2="1919.8" y2="3839.8"/>
		
			<line id="Ligne_49_00000053543668744542024010000016827051358333474232_" class="st1" x1="1857.9" y1="1920.2" x2="1857.9" y2="3839.8"/>
		
			<line id="Ligne_50_00000145757576602376798720000007846524107600601246_" class="st1" x1="1795.9" y1="1920.2" x2="1795.9" y2="3839.8"/>
		
			<line id="Ligne_51_00000083775844858355121910000013126616494585741445_" class="st1" x1="1734" y1="1920.2" x2="1734" y2="3839.8"/>
		
			<line id="Ligne_52_00000181790323271879034910000005965849334327265421_" class="st1" x1="1672.1" y1="1920.2" x2="1672.1" y2="3839.8"/>
		
			<line id="Ligne_53_00000020389727783233311180000008015504281841900452_" class="st1" x1="1610.2" y1="1920.2" x2="1610.2" y2="3839.8"/>
		
			<line id="Ligne_54_00000046317524905663698570000005773799129799001231_" class="st1" x1="1548.2" y1="1920.2" x2="1548.2" y2="3839.8"/>
		
			<line id="Ligne_55_00000178922399651517789320000011049088631667004811_" class="st1" x1="1486.3" y1="1920.2" x2="1486.3" y2="3839.8"/>
		
			<line id="Ligne_56_00000095314642896848290340000007809963984667095729_" class="st1" x1="1424.4" y1="1920.2" x2="1424.4" y2="3839.8"/>
		
			<line id="Ligne_57_00000092456676318696889570000012586012282724479671_" class="st1" x1="1362.5" y1="1920.2" x2="1362.5" y2="3839.8"/>
		
			<line id="Ligne_58_00000026143851055363023450000002856686055150071228_" class="st1" x1="1300.6" y1="1920.2" x2="1300.6" y2="3839.8"/>
		
			<line id="Ligne_59_00000052076265718460693990000002595973836774162070_" class="st1" x1="1238.6" y1="1920.2" x2="1238.6" y2="3839.8"/>
		
			<line id="Ligne_60_00000070096091728093340040000010939562659221823374_" class="st1" x1="1176.7" y1="1920.2" x2="1176.7" y2="3839.8"/>
		
			<line id="Ligne_61_00000153663928447438415500000006243575199764811955_" class="st1" x1="1114.8" y1="1920.2" x2="1114.8" y2="3839.8"/>
		
			<line id="Ligne_62_00000148627395951784788390000001122024285195879615_" class="st1" x1="1052.9" y1="1920.2" x2="1052.9" y2="3839.8"/>
		
			<line id="Ligne_63_00000160164956680053671230000011604603194212388764_" class="st1" x1="991" y1="1920.2" x2="991" y2="3839.8"/>
		
			<line id="Ligne_64_00000136394465588653838790000009554035020855369622_" class="st1" x1="929" y1="1920.2" x2="929" y2="3839.8"/>
		
			<line id="Ligne_65_00000183218941228312957160000010547527480639080078_" class="st1" x1="867.1" y1="1920.2" x2="867.1" y2="3839.8"/>
		
			<line id="Ligne_66_00000028296633005875723820000014894524151082212501_" class="st1" x1="805.2" y1="1920.2" x2="805.2" y2="3839.8"/>
		
			<line id="Ligne_67_00000009552301609252370280000017764311797214947722_" class="st1" x1="743.3" y1="1920.2" x2="743.3" y2="3839.8"/>
		
			<line id="Ligne_68_00000088101243560079353900000017910539283263188900_" class="st1" x1="681.4" y1="1920.2" x2="681.4" y2="3839.8"/>
		
			<line id="Ligne_69_00000170258071553898066170000011419154031281203131_" class="st1" x1="619.4" y1="1920.2" x2="619.4" y2="3839.8"/>
		
			<line id="Ligne_70_00000036246146077674722600000005037824487326263993_" class="st1" x1="557.5" y1="1920.2" x2="557.5" y2="3839.8"/>
		
			<line id="Ligne_71_00000170969608253416865600000013311842485517716894_" class="st1" x1="495.6" y1="1920.2" x2="495.6" y2="3839.8"/>
		
			<line id="Ligne_72_00000108989374961516276290000001928240690726095277_" class="st1" x1="433.7" y1="1920.2" x2="433.7" y2="3839.8"/>
		
			<line id="Ligne_73_00000122699553670444693190000011349688591498190220_" class="st1" x1="371.8" y1="1920.2" x2="371.8" y2="3839.8"/>
		
			<line id="Ligne_74_00000067929860981735621290000009605535207587440060_" class="st1" x1="309.8" y1="1920.2" x2="309.8" y2="3839.8"/>
		
			<line id="Ligne_75_00000118376106012753790790000013620817138841382530_" class="st1" x1="247.9" y1="1920.2" x2="247.9" y2="3839.8"/>
		
			<line id="Ligne_76_00000154419871304994528550000007159215651490728114_" class="st1" x1="186" y1="1920.2" x2="186" y2="3839.8"/>
		
			<line id="Ligne_77_00000063610331042741390850000011332645931878283180_" class="st1" x1="124.1" y1="1920.2" x2="124.1" y2="3839.8"/>
		
			<line id="Ligne_78_00000091016416336876328380000012700971535397176461_" class="st1" x1="62.1" y1="1920.2" x2="62.1" y2="3839.8"/>
		
			<line id="Ligne_79_00000059306888019570602100000003499114162620700052_" class="st1" x1="0.2" y1="1920.2" x2="0.2" y2="3839.8"/>
		
			<line id="Ligne_80_00000148641877326132032700000014501170470667438247_" class="st1" x1="0.2" y1="1920.2" x2="1919.8" y2="1920.2"/>
		
			<line id="Ligne_81_00000116207470529876627370000015546356336591318665_" class="st1" x1="0.2" y1="1982.1" x2="1919.8" y2="1982.1"/>
		
			<line id="Ligne_82_00000119118148076585698850000013931641047850984864_" class="st1" x1="0.2" y1="2044.1" x2="1919.8" y2="2044.1"/>
		<line id="Ligne_83_00000078039236061416395940000009687160596940348815_" class="st1" x1="0.2" y1="2106" x2="1919.8" y2="2106"/>
		
			<line id="Ligne_84_00000134936920008272500410000002005535751988797314_" class="st1" x1="0.2" y1="2167.9" x2="1919.8" y2="2167.9"/>
		
			<line id="Ligne_85_00000134229438264005039660000008774360023945038728_" class="st1" x1="0.2" y1="2229.8" x2="1919.8" y2="2229.8"/>
		
			<line id="Ligne_86_00000163767544712885449810000012459010608597640871_" class="st1" x1="0.2" y1="2291.7" x2="1919.8" y2="2291.8"/>
		
			<line id="Ligne_87_00000113352706788466997530000003201665209884859068_" class="st1" x1="0.2" y1="2353.7" x2="1919.8" y2="2353.7"/>
		
			<line id="Ligne_88_00000054961979484672262010000000849173115735636642_" class="st1" x1="0.2" y1="2415.6" x2="1919.8" y2="2415.6"/>
		
			<line id="Ligne_89_00000158746361602792535840000001300590344490071175_" class="st1" x1="0.2" y1="2477.5" x2="1919.8" y2="2477.5"/>
		
			<line id="Ligne_90_00000058579254793717431690000012585013130949153714_" class="st1" x1="0.2" y1="2539.4" x2="1919.8" y2="2539.4"/>
		
			<line id="Ligne_91_00000088844708730608497090000015198961855309252028_" class="st1" x1="0.2" y1="2601.4" x2="1919.8" y2="2601.4"/>
		
			<line id="Ligne_92_00000182518563204404256800000003753834720101097392_" class="st1" x1="0.2" y1="2663.3" x2="1919.8" y2="2663.3"/>
		
			<line id="Ligne_93_00000071552354756164998060000017862464470391873955_" class="st1" x1="0.2" y1="2725.2" x2="1919.8" y2="2725.2"/>
		
			<line id="Ligne_94_00000111172815062028851090000001933326972232830125_" class="st1" x1="0.2" y1="2787.1" x2="1919.8" y2="2787.1"/>
		<line id="Ligne_95_00000013908421688979332520000017829752949017480119_" class="st1" x1="0.2" y1="2849" x2="1919.8" y2="2849"/>
		<line id="Ligne_96_00000130612205102220363280000012713342021559360167_" class="st1" x1="0.2" y1="2911" x2="1919.8" y2="2911"/>
		
			<line id="Ligne_97_00000095298878815111132950000018430891661856306840_" class="st1" x1="0.2" y1="2972.9" x2="1919.8" y2="2972.9"/>
		
			<line id="Ligne_98_00000151504521584734130640000004955149490910126506_" class="st1" x1="0.2" y1="3034.8" x2="1919.8" y2="3034.8"/>
		
			<line id="Ligne_99_00000064343265652635234840000004722751683441129104_" class="st1" x1="0.2" y1="3096.7" x2="1919.8" y2="3096.7"/>
		
			<line id="Ligne_100_00000152251335381199937100000010092316625944982938_" class="st1" x1="0.2" y1="3158.6" x2="1919.8" y2="3158.6"/>
		
			<line id="Ligne_101_00000047018607098658473560000005789487997328969395_" class="st1" x1="0.2" y1="3220.6" x2="1919.8" y2="3220.6"/>
		
			<line id="Ligne_102_00000025415000619094169790000008393992676489055935_" class="st1" x1="0.2" y1="3282.5" x2="1919.8" y2="3282.5"/>
		
			<line id="Ligne_103_00000000223094346301190620000001728365417878698887_" class="st1" x1="0.2" y1="3344.4" x2="1919.8" y2="3344.4"/>
		
			<line id="Ligne_104_00000070109456886349270420000010192235606424178334_" class="st1" x1="0.2" y1="3406.3" x2="1919.8" y2="3406.3"/>
		
			<line id="Ligne_105_00000062161844666592335430000004296461583644982421_" class="st1" x1="0.2" y1="3468.2" x2="1919.8" y2="3468.3"/>
		
			<line id="Ligne_106_00000145775355440946120040000005114087097631189676_" class="st1" x1="0.2" y1="3530.2" x2="1919.8" y2="3530.2"/>
		
			<line id="Ligne_107_00000051366457142268904360000015400971208280717205_" class="st1" x1="0.2" y1="3592.1" x2="1919.8" y2="3592.1"/>
		
			<line id="Ligne_108_00000080886854153833794300000016960305871959418277_" class="st1" x1="0.2" y1="3654" x2="1919.8" y2="3654"/>
		
			<line id="Ligne_109_00000177459046925255391880000017389677657156487352_" class="st1" x1="0.2" y1="3715.9" x2="1919.8" y2="3715.9"/>
		
			<line id="Ligne_110_00000035525077397209908920000004619164258464793985_" class="st1" x1="0.2" y1="3777.9" x2="1919.8" y2="3777.9"/>
		
			<line id="Ligne_111_00000067221283878634842240000002386732960335982241_" class="st1" x1="0.2" y1="3839.8" x2="1919.8" y2="3839.8"/>
	</g>
</g>
</svg>
